<svg width="38" height="38" viewBox="0 0 38 38" fill="none" xmlns="http://www.w3.org/2000/svg">
<path d="M36.4001 11.5616L19.4424 0.268086C18.8635 -0.0877313 18.2458 -0.090989 17.6617 0.268086L0.703964 11.5616C0.26915 11.8511 0 12.3683 0 12.8853V24.1787C0 24.6958 0.26915 25.2129 0.704037 25.5025L17.6618 36.7976C18.2406 37.1534 18.8583 37.1567 19.4424 36.7976L36.4002 25.5025C36.835 25.213 37.1042 24.6958 37.1042 24.1787V12.8853C37.1041 12.3683 36.835 11.8511 36.4001 11.5616ZM20.1464 4.57025L32.6318 12.8853L27.062 16.6085L20.1464 11.9959V4.57025ZM16.9578 4.57025V11.9959L10.0421 16.6085L4.47235 12.8853L16.9578 4.57025ZM3.18864 15.8638L7.1848 18.532L3.18864 21.2003V15.8638ZM16.9578 32.4938L4.47235 24.1788L10.0421 20.4556L16.9578 25.0682V32.4938ZM18.5521 22.2965L12.9201 18.532L18.5521 14.7676L24.184 18.532L18.5521 22.2965ZM20.1464 32.4938V25.0682L27.062 20.4556L32.6318 24.1788L20.1464 32.4938ZM33.9155 21.2003L29.9193 18.532L33.9155 15.8638V21.2003Z" fill="#E5E5E5"/>
</svg>
