<svg width="53" height="31" viewBox="0 0 53 31" fill="none" xmlns="http://www.w3.org/2000/svg">
<path d="M52.9999 30.1033C51.1014 30.5875 49.9273 30.1242 48.874 28.538C46.5092 24.9857 43.8988 21.5963 41.3799 18.1442C41.0552 17.6976 40.718 17.2593 40.2974 16.7041C37.3165 20.7364 34.3397 24.5767 31.546 28.5714C30.5468 29.999 29.4976 30.6209 27.6324 30.1158L38.8403 15.0345L28.4068 1.41405C30.2013 1.06342 31.4419 1.24291 32.5411 2.85415C34.9683 6.41056 37.6454 9.79584 40.3141 13.3773C42.9995 9.80836 45.6432 6.41891 48.1413 2.89589C49.1446 1.46831 50.2229 0.925667 52.0257 1.45162C50.6601 3.26739 49.3237 5.05395 47.9789 6.82798C46.1637 9.2198 44.3817 11.6408 42.4999 13.9826C41.8296 14.8174 41.9378 15.36 42.5373 16.149C46.0179 20.7364 49.4569 25.3698 52.9999 30.1033Z" fill="#E5E5E5"/>
<path d="M0.816689 14.784C1.11645 13.2771 1.31629 11.741 1.73263 10.2634C4.23066 1.31806 14.4726 -2.40115 21.5087 3.14218C25.6304 6.39388 26.6546 10.9772 26.4506 16.1448H3.21896C2.86924 25.4157 9.52648 31.0133 18.0114 28.1582C20.9883 27.1563 22.741 24.8188 23.6195 21.8969C24.065 20.4317 24.8019 20.2021 26.1758 20.6196C25.4722 24.2762 23.8776 27.3317 20.5469 29.2434C15.5509 32.1069 8.41902 31.1803 4.66782 27.2023C2.4529 24.8647 1.51197 21.9553 1.09564 18.8121C1.03319 18.3112 0.90412 17.8187 0.804199 17.3219C0.812526 16.476 0.816689 15.63 0.816689 14.784ZM3.26059 14.1621H24.2565C24.1191 7.45831 19.9557 2.69554 14.2644 2.6538C8.01934 2.60371 3.53121 7.25377 3.26059 14.1621Z" fill="#E5E5E5"/>
</svg>
