<svg width="176" height="68" viewBox="0 0 176 68" fill="none" xmlns="http://www.w3.org/2000/svg">
<path d="M60.576 63.872V68H0V63.872H9.312V0.895994H20.64V57.248H51.264V63.872H60.576ZM148.743 63.872V68H128.103V15.584L104.679 62.144H98.343L75.015 15.584V68H54.375V63.872H63.687V0.895994H81.351L101.607 43.04L121.863 0.895994H139.431V63.872H148.743ZM175.565 63.872V68H148.781V63.872H157.133C155.725 62.592 155.021 60.928 155.021 58.88C155.021 56.768 155.693 55.04 157.037 53.696C158.445 52.288 160.141 51.584 162.125 51.584C164.109 51.584 165.805 52.288 167.213 53.696C168.621 55.04 169.325 56.736 169.325 58.784C169.325 60.832 168.589 62.528 167.117 63.872H175.565Z" fill="#0A2529"/>
</svg>
