<svg width="38" height="38" viewBox="0 0 38 38" fill="none" xmlns="http://www.w3.org/2000/svg">
<path d="M34.0246 0.737457H4.87143C2.67666 0.737457 0.895996 2.51628 0.895996 4.70878V33.8318C0.895996 36.0243 2.67666 37.8031 4.87143 37.8031H34.0246C36.2194 37.8031 38 36.0243 38 33.8318V4.70878C38 2.51628 36.2194 0.737457 34.0246 0.737457ZM23.8624 32.4832C23.1667 32.6073 22.9099 32.1771 22.9099 31.8213C22.9099 31.3746 22.9265 29.0911 22.9265 27.246C22.9265 25.9554 22.4958 25.1363 21.9906 24.7061C25.055 24.3668 28.2851 23.9449 28.2851 18.6581C28.2851 17.1523 27.7467 16.3994 26.8688 15.4314C27.0096 15.0756 27.4817 13.6112 26.728 11.7082C25.5768 11.3525 22.9431 13.1892 22.9431 13.1892C21.8498 12.8831 20.6655 12.7259 19.4977 12.7259C18.3299 12.7259 17.1456 12.8831 16.0523 13.1892C16.0523 13.1892 13.4186 11.3525 12.2674 11.7082C11.5137 13.6029 11.9775 15.0673 12.1266 15.4314C11.2487 16.3994 10.8346 17.1523 10.8346 18.6581C10.8346 23.9201 13.9238 24.3668 16.9882 24.7061C16.5907 25.0618 16.2345 25.6741 16.1103 26.5511C15.3235 26.9068 13.3109 27.5191 12.11 25.401C11.3563 24.0938 9.99808 23.9862 9.99808 23.9862C8.65637 23.9697 9.90697 24.8302 9.90697 24.8302C10.8014 25.2438 11.4309 26.8324 11.4309 26.8324C12.2343 29.2896 16.0772 28.4623 16.0772 28.4623C16.0772 29.6123 16.0937 31.4821 16.0937 31.8213C16.0937 32.1771 15.8453 32.6073 15.1413 32.4832C9.67507 30.6548 5.84872 25.4589 5.84872 19.3861C5.84872 11.791 11.6628 6.02428 19.2658 6.02428C26.8688 6.02428 33.0307 11.791 33.0307 19.3861C33.039 25.4589 29.3286 30.663 23.8624 32.4832ZM15.7376 27.4281C15.5802 27.4612 15.4312 27.395 15.4146 27.2874C15.398 27.1633 15.5057 27.0558 15.6631 27.0227C15.8204 27.0061 15.9695 27.0723 15.9861 27.1799C16.0109 27.2874 15.9032 27.395 15.7376 27.4281ZM14.9508 27.3536C14.9508 27.4612 14.8266 27.5522 14.6609 27.5522C14.4787 27.5687 14.3545 27.4777 14.3545 27.3536C14.3545 27.246 14.4787 27.155 14.6444 27.155C14.8017 27.1385 14.9508 27.2295 14.9508 27.3536ZM13.8161 27.2626C13.783 27.3701 13.6174 27.4198 13.4766 27.3701C13.3192 27.3371 13.2116 27.2129 13.2447 27.1054C13.2778 26.9978 13.4435 26.9482 13.5842 26.9813C13.7499 27.0309 13.8576 27.155 13.8161 27.2626ZM12.7974 26.8158C12.7229 26.9068 12.5655 26.8903 12.4413 26.7662C12.3171 26.6586 12.284 26.5014 12.3668 26.427C12.4413 26.3359 12.5987 26.3525 12.7229 26.4766C12.8306 26.5842 12.872 26.7496 12.7974 26.8158ZM12.0438 26.0629C11.9692 26.1126 11.8284 26.0629 11.7373 25.9388C11.6462 25.8147 11.6462 25.6741 11.7373 25.6161C11.8284 25.5417 11.9692 25.5996 12.0438 25.7237C12.1349 25.8478 12.1349 25.9967 12.0438 26.0629ZM11.5054 25.2604C11.4309 25.3348 11.3067 25.2935 11.2156 25.2107C11.1244 25.1032 11.1079 24.9791 11.1824 24.9212C11.257 24.8467 11.3812 24.8881 11.4723 24.9708C11.5634 25.0784 11.58 25.2025 11.5054 25.2604ZM10.9505 24.6481C10.9174 24.7226 10.8097 24.7391 10.7186 24.6812C10.611 24.6316 10.5613 24.5406 10.5944 24.4661C10.6275 24.4165 10.7186 24.3917 10.8263 24.433C10.934 24.4909 10.9837 24.5819 10.9505 24.6481Z" fill="#E5E5E5"/>
</svg>
