<svg width="53" height="53" viewBox="0 0 53 53" fill="none" xmlns="http://www.w3.org/2000/svg">
<path d="M46.7792 0.310867H5.76805C2.68057 0.310867 0.175629 2.82232 0.175629 5.91782V47.0355C0.175629 50.131 2.68057 52.6425 5.76805 52.6425H46.7792C49.8666 52.6425 52.3716 50.131 52.3716 47.0355V5.91782C52.3716 2.82232 49.8666 0.310867 46.7792 0.310867ZM28.5805 41.1248C28.5805 46.2178 25.5979 48.5424 21.2521 48.5424C17.3257 48.5424 15.0538 46.5099 13.8887 44.0451L17.885 41.6271C18.6539 42.9938 19.353 44.1503 21.0424 44.1503C22.6502 44.1503 23.6755 43.5195 23.6755 41.0548V24.339H28.5805V41.1248ZM40.1848 48.5424C35.6293 48.5424 32.6816 46.3697 31.2485 43.5195L35.2448 41.2066C36.2934 42.9237 37.6682 44.197 40.0799 44.197C42.1072 44.197 43.4121 43.1807 43.4121 41.7673C43.4121 40.0852 42.0839 39.4895 39.8352 38.4966L38.6119 37.9709C35.07 36.4641 32.7282 34.56 32.7282 30.5534C32.7282 26.8621 35.5361 24.0587 39.9051 24.0587C43.0276 24.0587 45.2645 25.145 46.8724 27.9952L43.0509 30.4483C42.212 28.9414 41.3032 28.3456 39.8935 28.3456C38.4604 28.3456 37.5517 29.2568 37.5517 30.4483C37.5517 31.9201 38.4604 32.5158 40.5692 33.4386L41.7926 33.9643C45.9636 35.7515 48.3054 37.5854 48.3054 41.6972C48.3054 46.1127 44.8335 48.5424 40.1848 48.5424Z" fill="#E5E5E5"/>
</svg>
