<svg width="39" height="38" viewBox="0 0 39 38" fill="none" xmlns="http://www.w3.org/2000/svg">
<path d="M35.4191 0.737457H3.60734C2.14968 0.737457 0.965332 1.93713 0.965332 3.40983V35.1308C0.965332 36.6035 2.14968 37.8031 3.60734 37.8031H35.4191C36.8767 37.8031 38.0694 36.6035 38.0694 35.1308V3.40983C38.0694 1.93713 36.8767 0.737457 35.4191 0.737457ZM12.1794 32.508H6.68001V14.8191H12.1876V32.508H12.1794ZM9.42969 12.4032C7.66559 12.4032 6.24106 10.9719 6.24106 9.21789C6.24106 7.46389 7.66559 6.03256 9.42969 6.03256C11.1855 6.03256 12.6183 7.46389 12.6183 9.21789C12.6183 10.9802 11.1938 12.4032 9.42969 12.4032ZM32.7936 32.508H27.2943V23.9035C27.2943 21.8517 27.2529 19.2124 24.4369 19.2124C21.5713 19.2124 21.1324 21.4463 21.1324 23.7546V32.508H15.633V14.8191H20.9087V17.235H20.9833C21.7204 15.845 23.5176 14.3806 26.1928 14.3806C31.7584 14.3806 32.7936 18.0458 32.7936 22.8114V32.508Z" fill="#E5E5E5"/>
</svg>
