<svg width="48" height="53" viewBox="0 0 48 53" fill="none" xmlns="http://www.w3.org/2000/svg">
<path d="M24.1775 4.5466C30.5715 4.5466 36.574 5.85489 40.4887 6.90153C42.0546 7.29401 43.0985 8.6023 43.3595 10.3031C43.6205 12.7888 43.751 15.4054 43.751 18.022C43.751 38.4313 28.7446 46.6735 24.1775 48.636C19.6103 46.5427 4.604 38.3005 4.604 18.022C4.604 15.4054 4.73449 12.7888 4.99547 10.3031C5.12596 8.6023 6.30037 7.29401 7.86624 6.90153C11.7809 5.85489 17.7835 4.5466 24.1775 4.5466ZM24.1775 0.621735C17.392 0.621735 10.998 1.93002 6.82233 3.10749C3.82106 3.89246 1.47224 6.63987 1.21126 9.77976C0.95028 12.0039 0.689301 14.8821 0.689301 18.022C0.689301 44.8419 24.1775 52.9533 24.1775 52.9533C24.1775 52.9533 47.6657 44.8419 47.6657 18.022C47.6657 14.7513 47.4047 12.0039 47.1437 9.77976C46.7522 6.50904 44.5339 3.89246 41.4021 3.10749C37.357 1.93002 30.963 0.621735 24.1775 0.621735Z" fill="#E5E5E5"/>
<path d="M25.4823 32.0207H22.8725V42.487H25.4823V32.0207Z" fill="#E5E5E5"/>
<path d="M23.3175 10.0005C23.674 9.62318 23.9706 9.33564 24.1774 9.14294C24.3842 9.33564 24.6808 9.62318 25.0373 10.0005C25.7557 10.7608 26.7156 11.8835 27.6757 13.3273C29.5972 16.2171 31.5068 20.3736 31.5068 25.4792C31.5068 31.528 27.9873 35.5577 25.7147 37.6763L24.6519 34.4795L24.1774 33.0524L23.7029 34.4795L22.6401 37.6763C20.3675 35.5577 16.848 31.528 16.848 25.4792C16.848 20.3736 18.7576 16.2171 20.679 13.3273C21.6391 11.8835 22.5991 10.7608 23.3175 10.0005Z" fill="#E5E5E5" stroke="white"/>
<path d="M23.6774 9.62859V34.5563L22.6401 37.6763C20.3675 35.5577 16.848 31.528 16.848 25.4792C16.848 20.3736 18.7576 16.2171 20.679 13.3273C21.6391 11.8835 22.5991 10.7608 23.3175 10.0005C23.4457 9.86486 23.5661 9.7408 23.6774 9.62859Z" fill="#E5E5E5" stroke="white"/>
</svg>
