<svg width="47" height="53" viewBox="0 0 47 53" fill="none" xmlns="http://www.w3.org/2000/svg">
<path d="M23.3746 52.6425C22.6807 52.6425 21.9764 52.4555 21.3653 52.1025L14.9748 48.3122C14.0219 47.7722 14.488 47.5853 14.7987 47.4815C16.0727 47.035 16.3316 46.9415 17.6885 46.1627C17.8335 46.0796 18.0199 46.1107 18.1649 46.2042L23.0743 49.1222C23.2504 49.226 23.4989 49.226 23.6647 49.1222L42.7947 38.0525C42.9708 37.9487 43.0847 37.741 43.0847 37.5333V15.394C43.0847 15.176 42.9708 14.9787 42.7844 14.8644L23.6647 3.80518C23.4886 3.70134 23.2504 3.70134 23.0743 3.80518L3.96494 14.8748C3.77851 14.9787 3.66457 15.1864 3.66457 15.4044V37.5333C3.66457 37.741 3.77851 37.9487 3.96494 38.0422L9.20577 41.0744C12.054 42.497 13.7941 40.8251 13.7941 39.1325V17.284C13.7941 16.9725 14.0427 16.7336 14.3534 16.7336H16.777C17.0774 16.7336 17.3363 16.9725 17.3363 17.284V39.1429C17.3363 42.9435 15.2648 45.1242 11.6708 45.1242C10.5626 45.1242 9.69256 45.1242 7.26894 43.9197L2.25597 41.0225C1.01309 40.3059 0.246643 38.9664 0.246643 37.5229V15.394C0.246643 13.961 1.01309 12.6111 2.25597 11.8945L21.3653 0.824889C22.5771 0.139527 24.1825 0.139527 25.384 0.824889L44.514 11.9049C45.7569 12.6214 46.5234 13.961 46.5234 15.4044V37.5333C46.5234 38.9664 45.7569 40.3059 44.514 41.0328L25.384 52.1025C24.7729 52.4555 24.0789 52.6425 23.3746 52.6425ZM38.8175 30.8251C38.8175 26.6818 36.021 25.581 30.1484 24.8022C24.2032 24.013 23.6025 23.608 23.6025 22.2165C23.6025 21.0639 24.11 19.527 28.5119 19.527C32.4373 19.527 33.8874 20.3785 34.4881 23.0369C34.5399 23.2861 34.7677 23.473 35.0267 23.473H37.5125C37.6678 23.473 37.8128 23.4107 37.9164 23.2965C38.02 23.1823 38.0717 23.0265 38.0614 22.8707C37.6782 18.2913 34.6435 16.1625 28.5119 16.1625C23.0536 16.1625 19.8014 18.4678 19.8014 22.3411C19.8014 26.5364 23.0432 27.6994 28.2737 28.2186C34.5399 28.8313 35.0267 29.7555 35.0267 30.9912C35.0267 33.1304 33.3074 34.0442 29.2783 34.0442C24.2136 34.0442 23.1054 32.7669 22.7325 30.2436C22.6911 29.9736 22.4632 29.7763 22.1835 29.7763H19.7081C19.3974 29.7763 19.1592 30.0255 19.1592 30.3266C19.1592 33.5562 20.9096 37.4087 29.2887 37.4087C35.3374 37.3983 38.8175 34.9996 38.8175 30.8251Z" fill="#E5E5E5"/>
</svg>
