<svg width="48" height="53" viewBox="0 0 48 53" fill="none" xmlns="http://www.w3.org/2000/svg">
<path d="M35.3184 0.668396C33.0046 0.668396 31.0012 1.29499 29.6139 1.91269C28.2531 1.45497 25.997 0.67284 23.2888 1.23722C21.7109 1.51274 20.2615 2.166 18.9318 3.16588C16.7422 2.10823 14.455 1.45941 12.0571 1.35276C10.5811 1.23722 4.56636 1.92158 2.40778 5.10343C1.61438 6.35661 0.82098 7.94754 0.479686 9.88064C0.138391 11.5871 0.138391 13.5247 0.705738 17.5064C1.04703 20.235 1.50357 22.057 2.52302 25.8076C2.63826 26.1498 3.20561 27.9718 4.90765 32.9801C5.24452 33.8867 5.92711 35.5932 7.28785 37.1841C8.1965 38.3217 9.10514 39.0061 10.2398 39.0061C11.7158 39.0061 12.7353 37.984 13.6439 36.8463C13.7104 36.7708 13.7813 36.6864 13.8478 36.6108C13.7636 36.7441 13.6882 36.8908 13.6439 37.073C13.4179 38.2106 14.7786 39.1216 15.9133 39.5749C16.8219 40.0282 17.8414 40.1437 18.6348 40.1437C19.6543 40.1437 20.4521 39.9171 20.9042 39.806C21.2942 39.6727 22.1364 39.3083 23.0362 38.7083C23.0761 41.6147 23.1027 45.0454 23.1736 45.832C23.5149 48.7916 24.3083 50.8358 25.7843 51.9734C26.919 52.8845 28.9623 53 29.0775 53C31.1164 53 34.2945 51.6357 35.6552 49.476C36.3378 48.4494 36.5639 47.5384 36.7899 46.2852C37.016 45.6053 37.242 41.6236 37.3573 40.8281C37.5124 39.5705 37.6321 38.3306 37.7517 37.1263C38.5008 37.3218 39.4228 37.5307 40.4245 37.5307C42.2373 37.5307 44.622 36.2775 45.0741 36.0464C45.9827 35.3665 47.7956 33.7756 47.0022 32.4113C46.5501 31.6114 45.8675 31.6114 44.1654 31.8425C44.1654 31.8425 41.4439 32.1802 41.2135 32.0647C41.0495 32.0025 40.7968 31.8425 40.5131 31.6336C41.1026 30.7182 41.6257 29.8116 42.2373 28.9984C43.5981 26.3809 44.3959 24.3323 44.9633 22.7413C45.9827 19.8972 46.5501 17.6175 46.8869 16.0266C47.6848 12.6137 47.9108 11.0227 47.4543 9.20072C46.5501 6.01443 43.2568 3.28586 41.896 2.4904C40.9874 2.03268 38.7224 0.668396 35.3184 0.668396ZM35.3184 2.94368C38.1551 2.94368 40.0832 4.08133 41.1026 4.53461C42.3526 5.21897 45.1893 7.49426 45.4154 9.654C45.5306 10.9072 45.6414 12.1604 44.848 15.4578C44.3959 17.0487 43.9394 19.0973 42.9155 21.9414C42.3481 23.5324 41.67 25.4699 40.3092 27.8607C40.2738 27.9185 40.2339 27.9807 40.1984 28.0429C40.3314 27.563 40.4245 27.1764 40.4245 27.1764C40.6505 26.0387 40.6505 25.1277 40.5353 23.7634C40.4201 23.0791 40.3092 21.3726 40.3092 20.6883C40.3092 20.3505 40.6461 16.822 40.7613 15.5689C40.8766 13.5247 39.6267 11.0183 39.2898 10.565C37.5877 7.94754 36.6791 6.47216 34.8618 4.99233C34.4097 4.60571 33.634 3.96134 32.5791 3.31253C33.4124 3.10811 34.3344 2.94368 35.3184 2.94368ZM25.2923 3.41029C26.7727 3.44585 28.0271 3.85469 28.9623 4.19687C31.3469 4.99233 32.8185 6.24107 33.5011 6.80989C34.9771 8.06308 35.7705 9.31626 37.4725 11.9337C37.5966 12.1826 37.9202 12.7114 38.1773 13.4491C35.8547 13.2358 34.3122 14.0535 33.3858 14.8889C32.0251 16.0266 32.1359 17.733 32.2511 18.9818C32.2511 19.8928 32.4816 21.0349 34.1837 24.9011C34.8618 26.6076 35.54 28.4251 36.2226 29.6783C36.5772 30.3849 37.0115 31.0337 37.4769 31.6114C37.2066 31.7492 36.9318 31.9269 36.6747 32.1802C35.9965 32.9757 35.8813 33.7756 35.6552 35.2554C35.4292 36.3931 35.2031 38.7795 35.0879 40.7126C35.0879 41.508 34.751 45.3787 34.6358 45.9475C34.2945 47.0851 34.1792 47.654 33.7271 48.3383C32.9337 49.5871 30.4383 50.6136 28.9623 50.4981C28.5102 50.4981 27.8276 50.4981 27.2603 50.0448C26.0103 49.1338 25.5582 47.0851 25.443 45.4942C25.3277 44.3566 25.443 36.162 25.2169 34.34C25.1017 33.8867 24.9909 32.7491 24.0822 31.9536C23.701 31.6336 22.9121 31.4692 22.1674 31.3581C22.1763 30.9759 22.1985 30.5938 22.2694 30.2471C22.3802 29.5628 22.6062 29.2206 22.8367 28.6518C22.9475 28.314 23.1736 27.8607 23.4041 27.2919C24.4235 24.1056 24.193 19.8928 23.6257 17.2753C23.5149 17.0487 23.0583 15.2311 21.4715 14.209C19.7695 13.1825 17.9522 13.7513 16.9328 14.0935C16.5117 14.209 16.095 14.3912 15.6784 14.6045C15.7493 14.129 15.8114 13.6491 15.9133 13.1825C16.3654 10.9072 16.8219 8.97408 18.2979 7.04098C19.8847 5.10343 21.6976 3.85469 23.7409 3.5125C24.2817 3.42807 24.8003 3.39696 25.2923 3.41029ZM11.2814 3.61027C11.5474 3.60583 11.7734 3.61027 11.9419 3.62805C13.7148 3.72137 15.4124 4.1391 17.0968 4.85012C16.8884 5.08121 16.6801 5.31229 16.4807 5.56115C14.5526 7.83644 14.096 10.2228 13.6439 12.6137C13.0766 15.4578 12.9613 18.413 13.4134 21.3726L13.1918 23.5324C13.0766 24.67 12.8461 26.8342 14.096 29.1095C14.5348 29.865 15.018 30.5049 15.5498 31.0515C14.3974 32.5802 13.1741 34.0245 11.9419 35.3665C11.2593 36.162 10.6919 36.7308 10.2398 36.7308C10.1246 36.7308 9.67248 36.5042 8.98989 35.7087C7.73996 34.3444 7.28785 32.8646 7.0618 32.2958C5.70105 28.1985 4.90765 25.581 4.79241 25.2388C3.88377 21.5993 3.43166 19.7817 2.97513 17.1642C2.40778 13.5247 2.40778 11.7026 2.74907 10.2273C3.09037 8.6319 3.65772 7.37872 4.22506 6.47216C5.61684 4.2813 9.43757 3.65915 11.2814 3.61027ZM37.3174 15.6C37.6808 15.6 38.0753 15.6444 38.492 15.7333C38.4787 16.7954 38.0399 20.1283 38.0399 20.5772C38.0399 21.4882 38.2659 23.3057 38.2659 23.9901C38.3811 25.2433 38.3811 25.9232 38.2659 26.8342C38.2659 26.8342 38.0975 27.6474 37.9246 28.2251C37.3972 27.0297 36.8121 25.6032 36.1073 23.9901C34.4053 20.1239 34.2945 19.3284 34.2945 18.7596C34.2945 17.9597 34.2945 16.9376 34.9726 16.4843C35.6109 15.9155 36.3866 15.6089 37.3174 15.6ZM19.703 15.9333C19.9291 15.9599 20.1374 16.0266 20.3368 16.1377C21.2455 16.5954 21.4715 17.733 21.4715 17.733C22.0389 20.235 22.2649 23.9901 21.3563 26.492C21.2455 26.9453 21.0194 27.2875 20.9042 27.6297C20.6781 28.1985 20.4521 28.7673 20.2216 29.7894C20.164 30.2116 20.1374 30.6293 20.1241 31.047C19.3396 30.8826 18.5993 30.6026 18.0675 30.2471C17.1588 29.7938 16.4807 28.9939 16.0285 28.0829C15.2307 26.3765 15.346 24.7855 15.4612 23.879L15.6828 21.2571C15.5233 19.9772 15.4479 18.6929 15.4656 17.4175C15.9887 16.9687 16.6712 16.511 17.6153 16.2532C18.2979 16.0844 19.0426 15.8488 19.703 15.9333ZM36.4353 16.6976C36.1384 16.7109 35.8237 16.7643 35.6552 16.822C35.2031 16.9376 35.0879 16.9376 34.9726 17.1642C34.8618 17.3909 35.2031 17.733 35.3184 17.9597C35.4292 17.9597 35.7705 18.3019 36.2226 18.1908C36.5639 18.0752 36.7899 17.8486 36.9052 17.733C37.0204 17.6175 37.4725 17.0487 37.1312 16.822C37.016 16.7065 36.7323 16.6798 36.4353 16.6976ZM19.4459 17.5242C19.3218 17.5331 19.2021 17.5642 19.0869 17.622C18.9761 17.622 18.75 17.733 18.6348 17.9597C18.5196 18.1863 18.6348 18.413 18.75 18.5285C18.9761 18.8707 19.3174 19.2129 19.8847 19.2129C20 19.2129 20.4521 19.2129 20.7889 18.8707C20.7889 18.8707 21.1347 18.5285 21.1347 18.1908C21.0194 17.9597 20.7934 17.8486 20.4521 17.733C20.195 17.6486 19.8138 17.4975 19.4459 17.5242ZM17.3583 32.4113C18.0542 32.7846 18.8919 33.0868 19.8094 33.2957C19.5656 33.7845 19.2154 34.1889 18.8653 34.4555C18.0675 35.0243 17.048 35.3665 16.0285 35.5932C15.7981 35.5932 15.6873 35.7087 15.4612 35.7087C14.9116 35.8642 14.3797 36.0376 14.0162 36.4153C15.1288 35.1754 16.2457 33.8067 17.3583 32.4113ZM39.2366 33.3223C39.733 33.6956 40.2206 33.9711 40.6461 34.1178C41.3287 34.3444 41.896 34.3444 43.9394 34.1178C43.5981 34.4555 42.5786 35.0243 41.1026 35.2554C40.1541 35.3487 38.9751 35.1221 38.0177 34.8466C38.1063 34.2022 38.2083 33.8334 38.3767 33.6601C38.4388 33.6023 38.8155 33.4867 39.2366 33.3223ZM22.1497 33.6645C22.3846 33.7045 22.5708 33.7356 22.6062 33.7712C22.8323 34.0022 22.9475 34.5711 22.9475 34.7977C22.9608 34.9932 22.9697 35.4865 22.9786 35.8287C22.0433 36.9263 20.5407 37.5352 20.2216 37.6418C19.7695 37.8685 18.4087 38.0951 17.048 37.6418C18.1827 37.2996 19.3174 36.9619 20.2216 36.2775C21.015 35.7087 21.6976 34.8021 22.1497 33.6645Z" fill="#E5E5E5"/>
</svg>
