<svg width="61" height="53" viewBox="0 0 61 53" fill="none" xmlns="http://www.w3.org/2000/svg">
<path d="M49.1912 17.2695C48.562 17.0593 47.9329 16.8607 47.3038 16.6738C47.4087 16.2417 47.5019 15.8095 47.5951 15.3773C49.028 8.4157 48.0844 2.82072 44.9039 0.975197C41.8398 -0.788564 36.8419 1.04528 31.7857 5.46052C31.2847 5.8927 30.7954 6.34824 30.3294 6.80378C30.0148 6.50009 29.6886 6.1964 29.3624 5.90438C24.0615 1.18545 18.749 -0.800244 15.5685 1.05696C12.5161 2.8324 11.6074 8.10032 12.8889 14.6881C13.0171 15.3423 13.1569 15.9847 13.32 16.6388C12.5744 16.849 11.8404 17.0827 11.153 17.3279C4.93181 19.4888 0.469757 22.8996 0.469757 26.4271C0.469757 30.0714 5.22306 33.7274 11.689 35.9467C12.2132 36.1219 12.7375 36.2971 13.2734 36.449C13.0986 37.1498 12.9472 37.839 12.8074 38.5515C11.5841 45.0342 12.5394 50.1736 15.5918 51.9374C18.7374 53.7595 24.0266 51.8907 29.176 47.3703C29.5838 47.0082 29.9915 46.6344 30.3993 46.2373C30.9119 46.7395 31.4478 47.2184 31.9837 47.6857C36.97 51.9841 41.8981 53.7245 44.9388 51.9607C48.0844 50.1386 49.1096 44.6137 47.7815 37.8857C47.6766 37.3717 47.5601 36.8461 47.432 36.3088C47.8048 36.2037 48.1659 36.0869 48.5271 35.9701C55.2493 33.7391 60.1191 30.1298 60.1191 26.4271C60.1191 22.8879 55.5289 19.4538 49.1912 17.2695ZM33.4283 7.35277C37.7622 3.56828 41.8049 2.08485 43.6456 3.14778C45.6145 4.28079 46.3718 8.85956 45.1369 14.875C45.0553 15.2722 44.9738 15.6576 44.8689 16.0431C42.2825 15.4591 39.6612 15.0386 37.0283 14.805C35.5137 12.6324 33.8594 10.5532 32.0653 8.60259C32.5196 8.17041 32.9623 7.76159 33.4283 7.35277ZM18.283 29.4407C18.8189 30.4685 19.3665 31.4848 19.949 32.4893C20.5432 33.5055 21.149 34.5217 21.7897 35.5145C19.9723 35.316 18.1665 35.024 16.384 34.6385C16.8966 32.9565 17.5374 31.2161 18.283 29.4407ZM18.283 23.5303C17.549 21.7899 16.9316 20.0846 16.419 18.4376C18.0966 18.0638 19.8791 17.7601 21.7315 17.5265C21.114 18.496 20.5082 19.4888 19.9373 20.4934C19.3665 21.4862 18.8073 22.5024 18.283 23.5303ZM19.6111 26.4855C20.3801 24.8736 21.2189 23.2967 22.1043 21.7432C22.9897 20.1897 23.945 18.6829 24.947 17.1995C26.6945 17.071 28.477 17.0009 30.2944 17.0009C32.1119 17.0009 33.906 17.071 35.6419 17.1995C36.6322 18.6712 37.5758 20.178 38.4729 21.7198C39.37 23.2617 40.2088 24.8385 41.001 26.4388C40.2205 28.0507 39.3816 29.6392 38.4846 31.2044C37.5991 32.7579 36.6555 34.2647 35.6652 35.7598C33.9293 35.8883 32.1235 35.9467 30.2944 35.9467C28.4653 35.9467 26.6945 35.8883 24.9819 35.7832C23.9683 34.2998 23.013 32.7813 22.1159 31.2278C21.2189 29.6743 20.3917 28.0974 19.6111 26.4855ZM40.6515 32.4659C41.2457 31.438 41.8049 30.3985 42.3524 29.3472C43.0981 31.0409 43.7505 32.7579 44.3213 34.5217C42.5156 34.9305 40.6865 35.2459 38.8457 35.4561C39.4748 34.475 40.069 33.4704 40.6515 32.4659ZM42.3291 23.5303C41.7816 22.5024 41.2224 21.4745 40.6399 20.47C40.069 19.4772 39.4748 18.496 38.8574 17.5265C40.7331 17.7601 42.5272 18.0755 44.2048 18.461C43.6689 20.1897 43.0398 21.8717 42.3291 23.5303ZM30.3177 10.3897C31.541 11.7213 32.6944 13.123 33.7662 14.5713C31.4595 14.4662 29.1411 14.4662 26.8343 14.5713C27.976 13.0646 29.1527 11.6629 30.3177 10.3897ZM16.8034 3.22954C18.7607 2.08485 23.1062 3.72012 27.6848 7.78495C27.976 8.04192 28.2673 8.32225 28.5702 8.60259C26.7644 10.5532 25.0984 12.6324 23.5722 14.805C20.9393 15.0386 18.3296 15.4474 15.7433 16.0197C15.5918 15.424 15.4636 14.8166 15.3355 14.2092C14.2404 8.55587 14.9627 4.29247 16.8034 3.22954ZM13.9491 34.0194C13.4598 33.8793 12.9821 33.7274 12.5045 33.5639C10.023 32.7813 7.20361 31.5432 5.16481 29.9196C3.98814 29.1019 3.19592 27.8404 2.97456 26.4271C2.97456 24.2895 6.65605 21.5563 11.9686 19.6991C12.6326 19.4655 13.3083 19.2552 13.9841 19.0567C14.7763 21.5913 15.7316 24.0793 16.8384 26.4855C15.7199 28.9267 14.753 31.4497 13.9491 34.0194ZM27.5333 45.4664C25.611 47.2301 23.3858 48.6318 20.9626 49.5896C19.6694 50.2087 18.1782 50.2671 16.85 49.7414C14.9976 48.6668 14.2287 44.5436 15.2772 38.9953C15.4054 38.3412 15.5452 37.6871 15.7083 37.0447C18.318 37.6054 20.9509 37.9908 23.6188 38.1894C25.1567 40.3736 26.8459 42.4645 28.6517 44.4268C28.2789 44.7889 27.9061 45.1393 27.5333 45.4664ZM30.3876 42.628C29.1993 41.3431 28.011 39.9181 26.8576 38.388C27.976 38.4347 29.1294 38.458 30.2944 38.458C31.4944 38.458 32.6711 38.4347 33.8361 38.3763C32.7643 39.8597 31.6109 41.273 30.3876 42.628ZM45.6145 46.1321C45.5097 47.5572 44.8107 48.8888 43.6922 49.7882C41.8398 50.8628 37.8904 49.4611 33.6264 45.7934C33.1371 45.3729 32.6478 44.9174 32.1468 44.4501C33.9293 42.4761 35.572 40.3853 37.0632 38.1894C39.7311 37.9675 42.3874 37.5586 45.0087 36.9629C45.1252 37.4418 45.2301 37.9207 45.3233 38.388C45.8941 40.9109 45.9873 43.5391 45.6145 46.1321ZM47.7349 33.5756C47.4087 33.6807 47.0825 33.7858 46.7446 33.8793C45.9291 31.3329 44.9272 28.845 43.7738 26.4271C44.8922 24.0443 45.8359 21.5913 46.6281 19.08C47.2339 19.2552 47.8164 19.4421 48.3756 19.629C53.8047 21.4979 57.6143 24.2779 57.6143 26.4037C57.6143 28.6931 53.5484 31.6483 47.7349 33.5756ZM30.2944 21.1241C33.2419 21.1241 35.6302 23.5186 35.6302 26.4738C35.6302 29.429 33.2419 31.8235 30.2944 31.8235C27.3469 31.8235 24.9586 29.429 24.9586 26.4738C24.9586 23.5186 27.3469 21.1241 30.2944 21.1241Z" fill="#E5E5E5"/>
</svg>
