<svg width="42" height="53" viewBox="0 0 42 53" fill="none" xmlns="http://www.w3.org/2000/svg">
<path d="M2.59625 43.3281V52.3316H4.88667V49.9866L6.97116 52.0765H10.4855L7.69791 49.2817C7.69791 49.2817 9.70329 49.249 9.85493 46.3414C9.85493 43.6737 7.84722 43.3281 5.5285 43.3281H2.59625ZM4.99565 45.7703H6.97116V47.3741H4.99565V45.7703Z" fill="#E5E5E5"/>
<path d="M14.9092 43.3647C13.655 43.3573 11.9157 43.4739 11.9157 45.8434V52.101H14.2666V50.5699H16.545V52.0645H18.9083V45.5032C18.9083 43.4451 16.6276 43.3647 15.406 43.3647C15.2532 43.3647 15.0884 43.3658 14.9092 43.3647ZM14.3031 45.6245H16.5089V48.0911H14.3031V45.6245Z" fill="#E5E5E5"/>
<path d="M23.6964 43.3705H21.264V51.9836H23.6964V43.3705Z" fill="#E5E5E5"/>
<path d="M26.2437 43.4848V52.0979H32.0973V49.8113H28.6384V43.4467L26.2437 43.4848Z" fill="#E5E5E5"/>
<path d="M39.8521 43.4086V45.7333H35.9368V46.5716C35.9368 46.5716 36.7353 46.5716 37.609 46.5716C38.4828 46.5716 40.3078 46.5335 40.3078 49.2778C40.3078 52.0217 39.0536 52.1741 36.5069 52.1741C33.9597 52.1741 33.428 52.1741 33.428 52.1741V50.0776C33.428 50.0776 35.8988 50.0776 36.9629 50.0776C38.0271 50.0776 38.086 49.73 38.086 49.4275C38.086 49.125 37.5419 48.9839 36.4351 48.9839C35.3283 48.9839 33.276 48.4388 33.276 46.3045C33.276 44.1703 34.3402 43.3697 36.4689 43.3697C38.5976 43.3697 39.8521 43.4086 39.8521 43.4086Z" fill="#E5E5E5"/>
<path d="M4.72835 40.779H24.9512C24.9512 40.779 20.4657 30.5651 21.6059 21.1899C22.7465 11.8146 30.1207 7.5458 34.3021 7.08855C38.4831 6.63091 40.7642 9.22278 40.7642 9.22278L41.6767 7.85064C41.6767 7.85064 35.6707 1.75279 28.068 2.43905C20.4654 3.12493 15.2198 8.15547 11.951 14.2533C8.6817 20.3516 6.78104 24.6196 5.48885 31.0223C4.19666 37.425 4.72835 40.779 4.72835 40.779Z" fill="#E5E5E5"/>
<path d="M0.699473 30.5651L4.65282 30.8699L3.96833 34.8331L0.243408 34.3759L0.699473 30.5651Z" fill="#E5E5E5"/>
<path d="M6.93339 22.1806L7.99793 19.2081L4.50064 17.8359L3.36047 21.0371L6.93339 22.1806Z" fill="#E5E5E5"/>
<path d="M11.875 11.9667L13.9277 9.528L11.2669 7.77481L9.13824 10.1373L11.875 11.9667Z" fill="#E5E5E5"/>
<path d="M17.2726 2.51526L19.0972 4.7257L21.606 3.27734L19.7813 1.21932L17.2726 2.51526Z" fill="#E5E5E5"/>
<path d="M26.1677 0L26.6237 2.21083L29.741 2.13461L29.4365 0.152808L26.1677 0Z" fill="#E5E5E5"/>
<path d="M36.7352 2.36286L36.6592 3.73462L38.7879 4.87774L39.244 4.19187L36.7352 2.36286Z" fill="#E5E5E5"/>
<path d="M36.2786 8.23209V9.37522L38.3313 9.60385V8.68894L36.2786 8.23209Z" fill="#E5E5E5"/>
<path d="M29.7411 9.2228L30.7292 11.0518L32.1738 9.90868L31.8698 8.68895L29.7411 9.2228Z" fill="#E5E5E5"/>
<path d="M26.6235 11.586L28.1441 13.8727L27.2316 15.4731L25.0269 13.0344L26.6235 11.586Z" fill="#E5E5E5"/>
<path d="M23.5828 17.9121L22.5942 19.8939L25.179 22.1048L25.7871 19.5891L23.5828 17.9121Z" fill="#E5E5E5"/>
<path d="M22.5184 24.8483L22.3664 27.516L25.5592 28.8881L25.4072 26.3725L22.5184 24.8483Z" fill="#E5E5E5"/>
<path d="M23.4304 34.3001L24.1909 37.0444L28.2199 37.273L26.7753 34.3001H23.4304Z" fill="#E5E5E5"/>
</svg>
