<svg width="54" height="53" viewBox="0 0 54 53" fill="none" xmlns="http://www.w3.org/2000/svg">
<path d="M1.87635 24.2022L7.64719 14.2747C7.70066 14.1764 7.77196 14.087 7.85217 14.0156L18.2085 4.33826C18.3199 4.2355 18.4536 4.15507 18.5962 4.10146L27.4908 0.826547L34.9907 6.0807L31.2564 17.983L17.2459 31.0335L5.82013 33.6025L1.87635 24.2022ZM6.63562 35.7649L11.9653 51.0449L16.3502 33.5757L6.63562 35.7649ZM46.7775 1.00079L38.324 5.70988L52.3344 15.9099C52.6285 14.5964 52.9716 12.8048 53.0518 11.2812C53.0474 11.2634 53.0474 11.241 53.0474 11.2187C53.0919 9.04734 52.7354 6.77769 51.559 4.81631C50.5029 3.05152 48.9164 1.76032 46.8354 0.947178C46.8176 0.96505 46.8042 0.987388 46.7775 1.00079ZM37.5263 38.4054L31.7332 20.6547L19.9732 31.6188L37.5263 38.4054ZM33.841 19.7522L39.594 37.3778C44.0948 32.4677 48.7025 26.588 51.3317 19.3591L33.841 19.7522ZM50.084 17.0984L36.9292 7.52381L33.8098 17.4647L50.084 17.0984ZM4.88432 37.6727L0.976194 44.3967C2.31307 50.6026 6.9431 51.992 9.99563 52.3316L4.88432 37.6727ZM3.87721 34.8669L0.592957 27.0437V40.5142L3.87721 34.8669ZM43.8542 0.0134037C43.8363 0.0089362 43.8185 0 43.7962 0H30.2983L36.3142 4.21762L43.8542 0.0134037ZM18.7031 33.5757L14.0285 52.1931C23.5337 50.7902 30.6637 45.6701 36.4434 40.4383L18.7031 33.5757ZM49.1303 49.9234C48.863 49.9234 48.5911 49.8296 48.3728 49.6375L38.9434 41.2425C34.7991 45.0982 29.9596 49.0165 24.0016 51.657L49.1482 49.9458C49.2952 49.9368 49.4334 49.8922 49.5626 49.8341C49.4245 49.8922 49.2774 49.9234 49.1303 49.9234ZM40.5922 39.6519L49.8879 47.9263C50.084 48.1006 50.1865 48.3284 50.231 48.5652L52.1517 23.3488C49.1705 29.8272 44.79 35.1484 40.5922 39.6519Z" fill="#E5E5E5"/>
</svg>
