<svg width="39" height="53" viewBox="0 0 39 53" fill="none" xmlns="http://www.w3.org/2000/svg">
<path fill-rule="evenodd" clip-rule="evenodd" d="M0.243408 50.7803V2.88813C0.243408 1.6627 1.23513 0.6684 2.45739 0.6684H21.8119L38.3842 17.2837V50.7803C38.3842 52.0057 37.3924 53 36.1702 53H2.45739C1.23513 53 0.243408 52.0057 0.243408 50.7803Z" fill="#E5E5E5"/>
<path d="M24.026 16.6587H36.8781L22.437 2.18003V15.0639C22.437 15.9457 23.1504 16.6587 24.026 16.6587Z" fill="#E5E5E5" stroke="white"/>
<path d="M11.0624 44.7214C11.0624 45.4235 10.784 46.005 10.2258 46.4614C9.71541 46.8816 9.06296 47.0923 8.26697 47.0923C7.94365 47.0923 7.63627 47.0458 7.34774 46.9557C7.05922 46.8656 6.80404 46.7362 6.5793 46.5705C6.35457 46.4033 6.18348 46.2652 6.06749 46.1533C5.95005 46.0413 5.82391 45.9047 5.68762 45.7419L6.34442 44.9874C6.5735 45.2971 6.86928 45.566 7.22885 45.7957C7.58987 46.0239 7.9712 46.1387 8.37571 46.1387C8.82373 46.1387 9.19635 46.0166 9.49213 45.7724C9.7879 45.5282 9.93724 45.2011 9.93724 44.7883C9.93724 44.5964 9.89375 44.422 9.80965 44.2664C9.72411 44.1123 9.59507 43.9786 9.42253 43.8667C9.24855 43.7547 9.11951 43.6777 9.03396 43.6341C8.94987 43.5905 8.81793 43.5352 8.64104 43.4669C8.01469 43.2169 7.59132 43.0381 7.36804 42.9276C7.04327 42.7808 6.77649 42.5918 6.5648 42.3607C6.21828 41.9987 6.04429 41.5336 6.04429 40.9652C6.04429 40.3459 6.28788 39.8313 6.77359 39.4228C7.2448 39.0289 7.861 38.8312 8.61785 38.8268C9.48923 38.8268 10.2533 39.1728 10.9101 39.8648L10.3215 40.6308C9.78211 40.0566 9.1949 39.7688 8.5613 39.7688C8.15098 39.7688 7.81606 39.8662 7.55798 40.061C7.2999 40.2558 7.17086 40.5305 7.17086 40.8867C7.17086 41.064 7.1984 41.221 7.25495 41.3577C7.3115 41.4929 7.39704 41.6091 7.51013 41.7065C7.62322 41.8025 7.72906 41.8781 7.82911 41.9333C7.92915 41.9871 8.05239 42.0452 8.20028 42.1063L9.67046 42.7241C10.0547 42.9014 10.3577 43.1166 10.5766 43.371C10.9 43.7751 11.0624 44.2257 11.0624 44.7214Z" fill="white"/>
<path d="M20.1547 42.9509C20.1547 44.1414 19.7835 45.1226 19.0397 45.8945L19.9227 46.9048L19.1919 47.5517L18.2756 46.4963C17.6043 46.8888 16.8562 47.088 16.0297 47.0923C14.8727 47.0923 13.8955 46.7129 13.0995 45.957C12.3035 45.2011 11.9062 44.1996 11.9062 42.9538C11.9062 41.708 12.3035 40.7064 13.0995 39.9505C13.8955 39.1946 14.8727 38.8152 16.0297 38.8152C17.1882 38.8152 18.1654 39.1932 18.96 39.9476C19.7559 40.7021 20.1547 41.7036 20.1547 42.9509ZM19.0063 42.9276C19.0063 41.9755 18.7207 41.2137 18.1495 40.6454C17.5768 40.0755 16.8707 39.7921 16.0297 39.7921C15.1888 39.7921 14.4827 40.0755 13.9114 40.6454C13.3402 41.2137 13.0546 41.9755 13.0546 42.9276C13.0546 43.8739 13.3402 44.6327 13.9114 45.2055C14.4827 45.7782 15.1888 46.0646 16.0297 46.0646C16.585 46.0646 17.0939 45.9352 17.5579 45.6736L16.8837 44.9075L17.6145 44.2562L18.2988 45.0441C18.77 44.4685 19.0063 43.7635 19.0063 42.9276Z" fill="white"/>
<path d="M25.4007 45.9861V46.9499H21.4628V38.9344H22.5821V45.9861H25.4007Z" fill="white"/>
</svg>
