<svg width="39" height="38" viewBox="0 0 39 38" fill="none" xmlns="http://www.w3.org/2000/svg">
<path d="M34.0593 0.737457H4.9061C2.71133 0.737457 0.930664 2.51628 0.930664 4.70878V33.8318C0.930664 36.0243 2.71133 37.8031 4.9061 37.8031H34.0593C36.254 37.8031 38.0347 36.0243 38.0347 33.8318V4.70878C38.0347 2.51628 36.254 0.737457 34.0593 0.737457ZM30.0093 13.8759C30.0259 14.1076 30.0259 14.3475 30.0259 14.5792C30.0259 21.7524 24.5596 30.0177 14.5714 30.0177C11.4904 30.0177 8.63306 29.1241 6.23124 27.5853C6.67019 27.6349 7.09258 27.6514 7.53982 27.6514C10.0824 27.6514 12.418 26.791 14.2815 25.3348C11.8962 25.2852 9.89195 23.7215 9.20453 21.5704C10.041 21.6945 10.7947 21.6945 11.656 21.4711C9.1714 20.9664 7.30792 18.7822 7.30792 16.1429V16.0767C8.02847 16.4821 8.87325 16.7303 9.75943 16.7634C9.0144 16.2683 8.40363 15.5967 7.98165 14.8085C7.55966 14.0202 7.33958 13.1399 7.34105 12.246C7.34105 11.2366 7.60608 10.31 8.07816 9.50746C10.7533 12.8004 14.7701 14.9515 19.2756 15.1831C18.5054 11.5014 21.2633 8.51463 24.5762 8.51463C26.1415 8.51463 27.5495 9.16825 28.5434 10.2273C29.7691 9.99561 30.9452 9.54056 31.9887 8.92004C31.5829 10.1776 30.7298 11.2366 29.6035 11.9068C30.6967 11.791 31.7568 11.4849 32.7341 11.0629C31.997 12.1467 31.0694 13.1065 30.0093 13.8759Z" fill="#E5E5E5"/>
</svg>
